<?xml version="1.0" encoding="utf-8"?>
<!DOCTYPE svg PUBLIC "-//W3C//DTD SVG 1.1//EN" "http://www.w3.org/Graphics/SVG/1.1/DTD/svg11.dtd">
<svg version="1.1" xmlns="http://www.w3.org/2000/svg" xmlns:xlink="http://www.w3.org/1999/xlink" x="0px" y="0px" width="130px" height="130px" viewBox="0 0 130 130" enable-background="new 0 0 130 130" xml:space="preserve">
<path fill="#84B040" d="M41.737,10.157c0,0-3.978,7.508-0.554,13.746c0,0,11.425-3.309,23.567,6.291 c0,0,13.359,11.262,10.377,26.615c0,0,4.642-16.018-7.73-32.245C67.396,24.564,57.912,11.982,41.737,10.157z"/>
<path fill="#84B040" d="M77.646,8.105c0,0-8.06,2.71-9.862,9.593c0,0,10.562,5.464,12.755,20.794c0,0,1.931,17.365-10.803,26.435 c0,0,14.394-8.41,16.602-28.696C86.337,36.23,88.115,20.568,77.646,8.105z"/>
<path fill="#84B040" d="M105.179,34.317c0,0-7.417-4.123-13.728-0.825c0,0,3.085,11.496-6.758,23.449 c0,0-11.521,13.126-26.798,9.852c0,0,15.904,4.944,32.386-7.1C90.281,59.693,103.046,50.452,105.179,34.317z"/>
<path fill="#84B040" d="M107,69.823c0,0-2.584-8.083-9.438-10.002c0,0-5.623,10.489-20.982,12.449c0,0-17.396,1.674-26.28-11.181 c0,0,8.197,14.507,28.454,17.025C78.754,78.115,94.378,80.126,107,69.823z"/>
<path fill="#84B040" d="M80.277,96.701c0,0,4.198-7.389,0.955-13.721c0,0-11.518,2.98-23.378-6.969 c0,0-13.031-11.657-9.605-26.91c0,0-5.101,15.868,6.792,32.458C55.042,81.56,64.17,94.412,80.277,96.701z"/>
<path fill="#84B040" d="M45.728,97.895c0,0,8.058-2.687,9.899-9.556c0,0-10.546-5.514-12.673-20.841 c0,0-1.869-17.371,10.902-26.403c0,0-14.428,8.358-16.715,28.634C37.141,69.729,35.295,85.38,45.728,97.895z"/>
<path fill="#84B040" d="M18.597,71.379c0,0,7.371,4.226,13.725,1.026c0,0-2.926-11.537,7.088-23.352 c0,0,11.717-12.967,26.957-9.462c0,0-15.85-5.181-32.495,6.629C33.873,46.221,20.967,55.279,18.597,71.379z"/>
<path fill="#84B040" d="M17,35.461c0,0,2.458,8.132,9.279,10.156c0,0,5.791-10.388,21.177-12.113c0,0,17.425-1.39,26.089,11.616 c0,0-7.955-14.648-28.165-17.479C45.38,27.641,29.778,25.372,17,35.461z"/>
<path fill="#84B040" d="M16.805,107.086c0,0-0.691,1.307-0.096,2.392c0,0,1.989-0.576,4.102,1.095c0,0,2.326,1.96,1.806,4.632 c0,0,0.808-2.786-1.345-5.611C21.272,109.593,19.62,107.401,16.805,107.086z"/>
<path fill="#84B040" d="M23.055,106.729c0,0-1.402,0.471-1.717,1.669c0,0,1.839,0.951,2.221,3.618c0,0,0.335,3.023-1.88,4.603 c0,0,2.505-1.465,2.889-4.995C24.567,111.623,24.877,108.896,23.055,106.729z"/>
<path fill="#84B040" d="M27.848,111.29c0,0-1.293-0.718-2.39-0.144c0,0,0.537,2-1.175,4.081c0,0-2.005,2.285-4.666,1.714 c0,0,2.77,0.861,5.636-1.234C25.252,115.707,27.476,114.099,27.848,111.29z"/>
<path fill="#84B040" d="M28.163,117.471c0,0-0.451-1.409-1.643-1.742c0,0-0.979,1.825-3.652,2.167c0,0-3.027,0.292-4.574-1.947 c0,0,1.428,2.526,4.952,2.963C23.247,118.911,25.969,119.261,28.163,117.471z"/>
<path fill="#84B040" d="M23.513,122.147c0,0,0.729-1.286,0.166-2.388c0,0-2.005,0.518-4.068-1.214c0,0-2.267-2.027-1.671-4.683 c0,0-0.888,2.762,1.181,5.648C19.12,119.512,20.708,121.75,23.513,122.147z"/>
<path fill="#84B040" d="M17.499,122.354c0,0,1.404-0.465,1.723-1.662c0,0-1.835-0.958-2.206-3.627c0,0-0.324-3.024,1.897-4.595 c0,0-2.51,1.455-2.908,4.983C16.005,117.453,15.684,120.179,17.499,122.354z"/>
<path fill="#84B040" d="M12.778,117.74c0,0,1.283,0.735,2.388,0.177c0,0-0.508-2.006,1.234-4.062c0,0,2.038-2.257,4.69-1.646 c0,0-2.757-0.901-5.654,1.153C15.437,113.361,13.191,114.938,12.778,117.74z"/>
<path fill="#84B040" d="M12.5,111.489c0,0,0.427,1.415,1.615,1.768c0,0,1.007-1.809,3.686-2.109c0,0,3.031-0.242,4.542,2.021 c0,0-1.387-2.549-4.904-3.041C17.438,110.128,14.724,109.732,12.5,111.489z"/>
<path fill="#544532" d="M36.68,120.249v-5.071c0-0.631-0.161-1.09-0.48-1.379c-0.321-0.287-0.715-0.432-1.182-0.432 c-0.467,0-0.865,0.147-1.19,0.441c-0.326,0.292-0.489,0.749-0.489,1.369v5.071h-1.663V108.64h1.663v4.173 c0.283-0.313,0.606-0.548,0.97-0.701c0.365-0.15,0.752-0.227,1.166-0.227c0.457,0,0.865,0.072,1.223,0.22 c0.359,0.146,0.66,0.354,0.905,0.619c0.245,0.267,0.429,0.587,0.554,0.962c0.125,0.374,0.188,0.784,0.188,1.23v5.333H36.68z"/>
<path fill="#544532" d="M40.887,116.596c0,0.718,0.179,1.282,0.538,1.696c0.359,0.412,0.88,0.619,1.565,0.619 c0.467,0,0.845-0.067,1.133-0.204c0.288-0.136,0.579-0.351,0.872-0.645l1.06,0.996c-0.218,0.217-0.432,0.404-0.645,0.561 c-0.211,0.159-0.44,0.292-0.684,0.4c-0.245,0.109-0.511,0.191-0.799,0.244c-0.288,0.054-0.611,0.082-0.97,0.082 c-0.521,0-1.008-0.073-1.46-0.22c-0.451-0.147-0.844-0.386-1.179-0.717c-0.334-0.333-0.601-0.77-0.799-1.312 c-0.198-0.544-0.296-1.208-0.296-1.989c0-1.349,0.321-2.39,0.962-3.123s1.495-1.1,2.56-1.1c0.554,0,1.049,0.097,1.484,0.292 c0.434,0.196,0.801,0.468,1.1,0.815c0.299,0.349,0.527,0.767,0.686,1.256c0.157,0.488,0.236,1.027,0.236,1.614v0.733H40.887z M44.604,115.438c-0.011-0.25-0.03-0.453-0.057-0.611c-0.028-0.156-0.085-0.328-0.172-0.513c-0.13-0.315-0.336-0.568-0.619-0.759 c-0.284-0.19-0.62-0.285-1.012-0.285c-0.391,0-0.73,0.095-1.019,0.285c-0.289,0.19-0.497,0.443-0.628,0.759 c-0.087,0.185-0.141,0.356-0.163,0.513c-0.022,0.158-0.038,0.361-0.048,0.611H44.604z"/>
<path fill="#544532" d="M51.973,120.249v-0.752c-0.304,0.305-0.619,0.522-0.945,0.653c-0.327,0.13-0.745,0.195-1.256,0.195 c-0.521,0-0.959-0.062-1.312-0.188c-0.354-0.125-0.655-0.312-0.905-0.562c-0.435-0.457-0.652-1.048-0.652-1.777 c0-0.695,0.236-1.266,0.709-1.711c0.473-0.447,1.187-0.67,2.144-0.67h2.185v-0.586c0-0.521-0.139-0.911-0.416-1.166 c-0.277-0.256-0.742-0.384-1.394-0.384c-0.456,0-0.815,0.061-1.076,0.181c-0.261,0.119-0.506,0.326-0.733,0.618l-1.092-1.026 c0.391-0.456,0.812-0.769,1.263-0.938c0.451-0.168,1.02-0.251,1.704-0.251c2.271,0,3.407,0.944,3.407,2.836v5.528H51.973z M51.941,116.596H50c-0.489,0-0.858,0.104-1.109,0.311c-0.25,0.207-0.375,0.499-0.375,0.881c0,0.38,0.123,0.67,0.367,0.87 c0.244,0.202,0.628,0.303,1.149,0.303c0.315,0,0.597-0.023,0.848-0.073c0.25-0.049,0.483-0.183,0.701-0.399 c0.238-0.24,0.359-0.646,0.359-1.223V116.596z"/>
<path fill="#544532" d="M59.254,113.922c-0.184-0.185-0.365-0.323-0.545-0.416c-0.18-0.092-0.41-0.139-0.693-0.139 c-0.456,0-0.845,0.166-1.166,0.497c-0.32,0.332-0.48,0.786-0.48,1.362v5.022h-1.663v-8.268h1.63v0.896 c0.219-0.293,0.522-0.531,0.914-0.717c0.391-0.185,0.82-0.276,1.287-0.276c0.402,0,0.762,0.06,1.076,0.179 c0.316,0.119,0.613,0.32,0.896,0.603L59.254,113.922z"/>
<path fill="#544532" d="M64.309,120.249c-0.391,0-0.729-0.066-1.01-0.197c-0.283-0.129-0.518-0.301-0.702-0.514 c-0.185-0.211-0.323-0.455-0.415-0.733c-0.093-0.276-0.139-0.562-0.139-0.855V113.4h-0.945v-1.271h0.945v-2.512h1.663v2.512 h1.597v1.271h-1.597v4.467c0,0.305,0.073,0.541,0.22,0.71c0.146,0.168,0.377,0.252,0.693,0.252h0.684v1.42H64.309z"/>
<path fill="#84B040" d="M76.661,120.249v-5.04c0-0.64-0.16-1.108-0.48-1.4c-0.321-0.294-0.714-0.441-1.183-0.441 c-0.467,0-0.869,0.15-1.207,0.448c-0.335,0.3-0.505,0.765-0.505,1.394v5.04h-1.662v-8.268h1.63v0.831 c0.282-0.313,0.616-0.548,1.003-0.701c0.386-0.15,0.784-0.227,1.198-0.227c0.424,0,0.807,0.064,1.149,0.195 c0.342,0.131,0.639,0.315,0.889,0.554c0.314,0.316,0.532,0.666,0.652,1.052c0.119,0.386,0.18,0.812,0.18,1.28v5.283H76.661z"/>
<path fill="#84B040" d="M82.287,120.249c-0.392,0-0.728-0.066-1.012-0.197c-0.282-0.129-0.516-0.301-0.7-0.514 c-0.185-0.211-0.324-0.455-0.416-0.733c-0.093-0.276-0.138-0.562-0.138-0.855V113.4h-0.946v-1.271h0.946v-2.512h1.662v2.512 h1.599v1.271h-1.599v4.467c0,0.305,0.073,0.541,0.22,0.71c0.147,0.168,0.377,0.252,0.693,0.252h0.686v1.42H82.287z"/>
<path fill="#84B040" d="M85.388,116.596c0,0.718,0.18,1.282,0.538,1.696c0.358,0.412,0.881,0.619,1.564,0.619 c0.468,0,0.846-0.067,1.134-0.204c0.288-0.136,0.578-0.351,0.872-0.645l1.06,0.996c-0.218,0.217-0.432,0.404-0.644,0.561 c-0.212,0.159-0.439,0.292-0.685,0.4c-0.244,0.109-0.511,0.191-0.799,0.244c-0.288,0.054-0.612,0.082-0.971,0.082 c-0.522,0-1.008-0.073-1.46-0.22c-0.451-0.147-0.844-0.386-1.178-0.717c-0.336-0.333-0.602-0.77-0.799-1.312 c-0.198-0.544-0.297-1.208-0.297-1.989c0-1.349,0.319-2.39,0.962-3.123c0.641-0.733,1.494-1.1,2.56-1.1 c0.555,0,1.049,0.097,1.483,0.292c0.436,0.196,0.802,0.468,1.101,0.815c0.3,0.349,0.527,0.767,0.685,1.256 c0.158,0.488,0.236,1.027,0.236,1.614v0.733H85.388z M89.105,115.438c-0.012-0.25-0.03-0.453-0.059-0.611 c-0.025-0.156-0.084-0.328-0.171-0.513c-0.13-0.315-0.336-0.568-0.619-0.759s-0.619-0.285-1.011-0.285s-0.731,0.095-1.019,0.285 c-0.288,0.19-0.497,0.443-0.628,0.759c-0.088,0.185-0.143,0.356-0.164,0.513c-0.021,0.158-0.038,0.361-0.048,0.611H89.105z"/>
<path fill="#84B040" d="M96.284,113.922c-0.185-0.185-0.368-0.323-0.547-0.416c-0.18-0.092-0.41-0.139-0.692-0.139 c-0.457,0-0.846,0.166-1.166,0.497c-0.321,0.332-0.48,0.786-0.48,1.362v5.022h-1.664v-8.268h1.631v0.896 c0.218-0.293,0.521-0.531,0.912-0.717c0.393-0.185,0.821-0.276,1.289-0.276c0.401,0,0.76,0.06,1.076,0.179 c0.315,0.119,0.614,0.32,0.896,0.603L96.284,113.922z"/>
<path fill="#84B040" d="M103.359,120.249v-5.04c0-0.64-0.16-1.108-0.48-1.4c-0.32-0.294-0.715-0.441-1.182-0.441 c-0.468,0-0.87,0.15-1.207,0.448c-0.337,0.3-0.505,0.765-0.505,1.394v5.04h-1.663v-8.268h1.631v0.831 c0.282-0.313,0.617-0.548,1.003-0.701c0.385-0.15,0.784-0.227,1.197-0.227c0.425,0,0.808,0.064,1.15,0.195 c0.342,0.131,0.638,0.315,0.888,0.554c0.315,0.316,0.532,0.666,0.652,1.052c0.119,0.386,0.179,0.812,0.179,1.28v5.283H103.359z" />
<path fill="#84B040" d="M107.408,116.596c0,0.718,0.179,1.282,0.538,1.696c0.358,0.412,0.88,0.619,1.565,0.619 c0.468,0,0.844-0.067,1.132-0.204c0.289-0.136,0.58-0.351,0.874-0.645l1.059,0.996c-0.217,0.217-0.432,0.404-0.645,0.561 c-0.211,0.159-0.439,0.292-0.684,0.4c-0.245,0.109-0.512,0.191-0.8,0.244c-0.288,0.054-0.61,0.082-0.97,0.082 c-0.521,0-1.009-0.073-1.46-0.22c-0.451-0.147-0.845-0.386-1.179-0.717c-0.334-0.333-0.601-0.77-0.798-1.312 c-0.199-0.544-0.297-1.208-0.297-1.989c0-1.349,0.321-2.39,0.961-3.123c0.643-0.733,1.495-1.1,2.561-1.1 c0.554,0,1.048,0.097,1.484,0.292c0.434,0.196,0.801,0.468,1.1,0.815c0.299,0.349,0.528,0.767,0.686,1.256 c0.156,0.488,0.236,1.027,0.236,1.614v0.733H107.408z M111.125,115.438c-0.011-0.25-0.03-0.453-0.056-0.611 c-0.028-0.156-0.085-0.328-0.172-0.513c-0.132-0.315-0.338-0.568-0.62-0.759s-0.62-0.285-1.011-0.285s-0.73,0.095-1.019,0.285 s-0.498,0.443-0.627,0.759c-0.088,0.185-0.142,0.356-0.163,0.513c-0.023,0.158-0.039,0.361-0.05,0.611H111.125z"/>
<path fill="#84B040" d="M116.506,120.249c-0.391,0-0.729-0.066-1.012-0.197c-0.281-0.129-0.516-0.301-0.7-0.514 c-0.186-0.211-0.323-0.455-0.416-0.733c-0.092-0.276-0.139-0.562-0.139-0.855V113.4h-0.945v-1.271h0.945v-2.512h1.663v2.512 h1.598v1.271h-1.598v4.467c0,0.305,0.072,0.541,0.22,0.71c0.147,0.168,0.379,0.252,0.692,0.252h0.686v1.42H116.506z"/>
<ellipse fill="#84B040" cx="69.944" cy="111.981" rx="0.832" ry="0"/>
<path fill="#84B040" d="M69.112,120.249v-8.268h1.663v8.268H69.112z"/>
<circle fill="#84B040" cx="69.934" cy="109.7" r="0.841"/>
</svg>
